<svg width="34" height="32" viewBox="0 0 34 32" fill="none" xmlns="http://www.w3.org/2000/svg">
<g id="Group 45">
<path id="Vector" d="M23.483 26.4845L2.0704 11.714C-0.0995048 10.2173 0.638121 7.10088 3.34394 6.36802L26.1017 0.191307C26.5838 0.0173566 27.1004 -0.0391112 27.6087 0.0265948C28.1169 0.0923008 28.6022 0.278283 29.0243 0.569108C29.4462 0.859932 29.7928 1.24721 30.0351 1.6988C30.2774 2.15038 30.4086 2.65326 30.4177 3.16568L29.0689 24.1116C28.909 26.5978 25.6529 27.9812 23.483 26.4845Z" fill="white"/>
<path id="Vector_2" d="M16.6916 30.1301L4.07676 5.4603C3.78839 4.89594 3.6615 4.26288 3.71007 3.63097C3.75864 2.99906 3.98078 2.39283 4.352 1.87915C4.72322 1.36548 5.22909 0.964296 5.81383 0.719853C6.39857 0.475411 7.03946 0.397208 7.66582 0.493875L31.0443 4.10202C31.5825 4.18511 32.0933 4.39476 32.5348 4.71374C32.9762 5.03273 33.3356 5.45194 33.5835 5.93689C33.8313 6.42185 33.9605 6.95871 33.9604 7.50333C33.9603 8.04795 33.8309 8.58478 33.583 9.06965L22.8134 30.1313C22.5242 30.6941 22.0855 31.1663 21.5454 31.4958C21.0053 31.8255 20.3849 31.9997 19.7522 31.9996C19.1194 31.9995 18.499 31.825 17.9591 31.4952C17.4191 31.1653 16.9806 30.693 16.6916 30.1301Z" fill="white"/>
<path id="Vector_3" d="M24.3811 8.72693L19.8923 8L14.3811 9.57011L16.5809 14.0856L21.7322 17.8153C21.8458 17.8966 21.9708 17.959 22.1027 18L24.0593 13.9852L24.3811 8.72693Z" fill="#0F172A"/>
</g>
</svg>
